<?xml version="1.0" encoding="utf-8"?>
<!-- Generator: Adobe Illustrator 16.0.0, SVG Export Plug-In . SVG Version: 6.00 Build 0)  -->
<!DOCTYPE svg PUBLIC "-//W3C//DTD SVG 1.1//EN" "http://www.w3.org/Graphics/SVG/1.1/DTD/svg11.dtd">
<svg version="1.1" id="Layer_1" xmlns="http://www.w3.org/2000/svg" xmlns:xlink="http://www.w3.org/1999/xlink" x="0px" y="0px"
	 width="768px" height="768px" viewBox="0 0 768 768" enable-background="new 0 0 768 768" xml:space="preserve">
<g>
	<path fill="#FF9781" d="M171.16,537.904c-99.365,26.081-142.417-18.836-142.417-77.2c0-58.357,41.018-110.015,130.943-102.429"/>
	<path fill="none" stroke="#082D53" stroke-width="5" stroke-linecap="round" stroke-linejoin="round" stroke-miterlimit="10" d="
		M50.222,447.752c0,0,51.271-40.167,99.461-1.32"/>
	<path fill="none" stroke="#082D53" stroke-width="5" stroke-linecap="round" stroke-linejoin="round" stroke-miterlimit="10" d="
		M128.408,434.059c0,0-30.317-3.601-34.397,44.8"/>
	<path fill="#FF9781" d="M603.675,537.904c94.504,26.081,135.448-18.836,135.448-77.2c0-58.357-39.006-110.015-124.528-102.429"/>
	<path fill="none" stroke="#082D53" stroke-width="5" stroke-linecap="round" stroke-linejoin="round" stroke-miterlimit="10" d="
		M715.224,447.752c0,0-48.751-40.167-94.595-1.32"/>
	<path fill="none" stroke="#082D53" stroke-width="5" stroke-linecap="round" stroke-linejoin="round" stroke-miterlimit="10" d="
		M640.877,434.059c0,0,28.821-3.601,32.688,44.8"/>
	<path fill="#FF9781" d="M627.636,427.678c0,138.615-108.606,250.984-242.608,250.984c-133.982,0-242.608-112.369-242.608-250.984
		c0-138.617,108.626-250.985,242.608-250.985C519.029,176.693,627.636,289.061,627.636,427.678z"/>
	
		<path fill="#FFFFFF" stroke="#FFFFFF" stroke-width="5" stroke-linecap="round" stroke-linejoin="round" stroke-miterlimit="10" d="
		M158.167,357.535c-42.403,0-9.586-137.631,5.939-85.72c0,0,51.292-88.836,53.236-47.205c0,0,73.338-69.382,76.154-28.998
		L158.167,357.535z"/>
	
		<path fill="#FFFFFF" stroke="#FFFFFF" stroke-width="5" stroke-linecap="round" stroke-linejoin="round" stroke-miterlimit="10" d="
		M616.686,357.535c42.394,0,9.582-137.631-5.946-85.72c0,0-51.292-88.836-53.227-47.205c0,0-73.349-69.382-76.164-28.998
		L616.686,357.535z"/>
	<path fill="none" stroke="#FFFFFF" stroke-width="5" stroke-linecap="round" stroke-linejoin="round" stroke-miterlimit="10" d="
		M188.811,313.909c0,0-34.551-41.147-10.018-107.366"/>
	<path fill="none" stroke="#FFFFFF" stroke-width="5" stroke-linecap="round" stroke-linejoin="round" stroke-miterlimit="10" d="
		M592.479,305.82c0,0,34.544-41.149,10.011-107.366"/>
	
		<line fill="none" stroke="#082D53" stroke-width="5" stroke-linecap="round" stroke-linejoin="round" stroke-miterlimit="10" x1="329.218" y1="270.259" x2="445.613" y2="270.259"/>
	
		<line fill="none" stroke="#082D53" stroke-width="5" stroke-linecap="round" stroke-linejoin="round" stroke-miterlimit="10" x1="346.483" y1="252.138" x2="428.349" y2="252.138"/>
	
		<circle fill="#FFFFFF" stroke="#FFFFFF" stroke-width="5" stroke-linecap="round" stroke-linejoin="round" stroke-miterlimit="10" cx="330.657" cy="176.693" r="33.057"/>
	
		<path fill="#FFFFFF" stroke="#FFFFFF" stroke-width="5" stroke-linecap="round" stroke-linejoin="round" stroke-miterlimit="10" d="
		M478.84,176.693c0,18.259-14.805,33.056-33.057,33.056c-18.259,0-33.059-14.797-33.059-33.056c0-18.258,14.8-33.056,33.059-33.056
		C464.035,143.637,478.84,158.435,478.84,176.693z"/>
	<path fill="#ABCFDB" d="M374.127,355.358c0,19.234-15.599,34.828-34.827,34.828c-19.243,0-34.833-15.594-34.833-34.828
		c0-19.239,15.59-34.84,34.833-34.84C358.528,320.519,374.127,336.12,374.127,355.358z"/>
	
		<path fill="#FFFFFF" stroke="#FFFFFF" stroke-width="5" stroke-linecap="round" stroke-linejoin="round" stroke-miterlimit="10" d="
		M431.026,186.657c0,26.907-21.813,48.724-48.72,48.724c-26.911,0-48.725-21.817-48.725-48.724
		c0-26.905,21.814-48.721,48.725-48.721C409.213,137.936,431.026,159.752,431.026,186.657z"/>
	<g>
		<polygon fill="#FEFB00" points="387.092,187.365 481.349,187.253 477.025,86.142 432.058,113.875 387.489,71.916 387.489,71.785 
			387.422,71.85 387.358,71.785 387.346,71.919 342.793,113.875 297.821,86.142 293.497,187.253 382.73,187.365 382.73,187.376 
			384.966,187.371 387.092,187.376 		"/>
		
			<line fill="none" stroke="#FF613C" stroke-width="5" stroke-linecap="round" stroke-linejoin="round" stroke-miterlimit="10" x1="294.85" y1="155.61" x2="480.11" y2="155.61"/>
		<path fill="#FF613C" d="M404.382,125.499c0,8.7-7.052,15.748-15.744,15.748c-8.698,0-15.744-7.047-15.744-15.748
			c0-8.697,7.045-15.743,15.744-15.743C397.33,109.756,404.382,116.802,404.382,125.499z"/>
		<path fill="#FF613C" d="M312.378,125.499c0,8.7-7.045,15.748-15.744,15.748c-8.698,0-15.746-7.047-15.746-15.748
			c0-8.697,7.048-15.743,15.746-15.743C305.333,109.756,312.378,116.802,312.378,125.499z"/>
		<path fill="#FF613C" d="M493.391,125.499c0,8.7-7.044,15.748-15.739,15.748c-8.703,0-15.757-7.047-15.757-15.748
			c0-8.697,7.054-15.743,15.757-15.743C486.347,109.756,493.391,116.802,493.391,125.499z"/>
		<circle fill="#FEFB00" cx="387.848" cy="69.951" r="11.611"/>
		<circle fill="#FEFB00" cx="298.737" cy="80.066" r="11.611"/>
		<circle fill="#FEFB00" cx="474.802" cy="80.066" r="11.61"/>
	</g>
	<path fill="none" stroke="#082D53" stroke-width="5" stroke-linecap="round" stroke-linejoin="round" stroke-miterlimit="10" d="
		M375.328,351.828c0,0,13.072-10.196,26.149,0"/>
	<path fill="#ABCFDB" d="M474.583,355.358c0,19.234-15.597,34.828-34.827,34.828c-19.242,0-34.833-15.594-34.833-34.828
		c0-19.239,15.591-34.84,34.833-34.84C458.986,320.519,474.583,336.12,474.583,355.358z"/>
	
		<path fill="#FFFFFF" stroke="#FFFFFF" stroke-width="5" stroke-linecap="round" stroke-linejoin="round" stroke-miterlimit="10" d="
		M362.809,337.722c8.694,3.317,13.627,3.396,17.993-5.921c4.367-9.321,1.359-11.21-13.694-16.488
		c-17.809-6.249-46.045-11.807-68.071-6.349c0,0,14.63,4.067,17.878,5.98l-24.836,10.692
		C292.078,325.636,320.412,321.498,362.809,337.722z"/>
	
		<path fill="#FFFFFF" stroke="#FFFFFF" stroke-width="5" stroke-linecap="round" stroke-linejoin="round" stroke-miterlimit="10" d="
		M414.252,336.846c-8.852,2.859-13.777,2.677-17.658-6.854c-3.87-9.54-0.766-11.271,14.537-15.746
		c18.123-5.313,46.609-9.379,68.325-2.778c0,0-14.834,3.297-18.177,5.041l24.244,11.977
		C485.523,328.485,457.442,322.872,414.252,336.846z"/>
	<path fill="none" stroke="#082D53" stroke-width="5" stroke-linecap="round" stroke-linejoin="round" stroke-miterlimit="10" d="
		M153.626,357.6c0.165,0.341,148.513,0,148.513,0"/>
	<path fill="none" stroke="#082D53" stroke-width="5" stroke-linecap="round" stroke-linejoin="round" stroke-miterlimit="10" d="
		M620.848,357.6c-0.161,0.341-145.797,0-145.797,0"/>
	<path fill="none" stroke="#082D53" stroke-width="5" stroke-linecap="round" stroke-linejoin="round" stroke-miterlimit="10" d="
		M459.409,446.53c0,28.751-30.066,52.056-67.155,52.056c-37.087,0-67.156-23.305-67.156-52.056"/>
	
		<line fill="none" stroke="#082D53" stroke-width="5" stroke-linecap="round" stroke-linejoin="round" stroke-miterlimit="10" x1="389.223" y1="535.789" x2="389.223" y2="562.317"/>
	<path fill="#082D53" d="M268.296,454.625c0,3.798-3.075,6.873-6.872,6.873c-3.794,0-6.873-3.075-6.873-6.873
		c0-3.792,3.079-6.873,6.873-6.873C265.221,447.752,268.296,450.833,268.296,454.625z"/>
	<path fill="none" stroke="#082D53" stroke-width="5" stroke-linecap="round" stroke-linejoin="round" stroke-miterlimit="10" d="
		M374.393,355.36c0,20.017-16.226,36.245-36.237,36.245c-20.027,0-36.254-16.228-36.254-36.245
		c0-20.022,16.227-36.256,36.254-36.256C358.167,319.104,374.393,335.337,374.393,355.36z"/>
	<path fill="none" stroke="#082D53" stroke-width="5" stroke-linecap="round" stroke-linejoin="round" stroke-miterlimit="10" d="
		M402.551,355.36c0,20.017,16.232,36.245,36.238,36.245c20.03,0,36.262-16.228,36.262-36.245c0-20.022-16.231-36.256-36.262-36.256
		C418.783,319.104,402.551,335.337,402.551,355.36z"/>
	<path fill="none" stroke="#082D53" stroke-width="5" stroke-linecap="round" stroke-linejoin="round" stroke-miterlimit="10" d="
		M377.36,352.793c0,0-8.012,34.284-1.703,74.92"/>
	<path fill="none" stroke="#082D53" stroke-width="5" stroke-linecap="round" stroke-linejoin="round" stroke-miterlimit="10" d="
		M401.938,352.793c0,0,8.56,34.284,2.913,74.92"/>
	<path fill="#082D53" d="M371.06,461.7c-1.641-4.743-14.223-21.957-30.315-27.708c-8.082-2.889,20.298-7.241,20.298-7.241
		l14.098,16.487C375.141,443.238,372.7,466.438,371.06,461.7z"/>
	<path fill="#082D53" d="M407.99,461.7c1.643-4.743,14.224-21.957,30.315-27.708c8.083-2.889-20.3-7.241-20.3-7.241l-14.096,16.487
		C403.91,443.238,406.349,466.438,407.99,461.7z"/>
	
		<path fill="#FF9781" stroke="#082D53" stroke-width="5" stroke-linecap="round" stroke-linejoin="round" stroke-miterlimit="10" d="
		M437.004,402.596c16.439,8.682,16.959,29.938-3.267,29.938c-20.233,0-25.788,8.249-25.674,22.284
		c0.109,14.029-13.425,15.441-16.722,15.441c-3.312,0-16.859-1.412-16.973-15.441c-0.113-14.035-5.793-22.284-26.02-22.284
		c-20.236,0-20.058-21.256-3.75-29.938"/>
	
		<line fill="#FFFFFF" stroke="#FFFFFF" stroke-width="5" stroke-linecap="round" stroke-linejoin="round" stroke-miterlimit="10" x1="293.497" y1="427.713" x2="149.683" y2="357.533"/>
	
		<line fill="#FFFFFF" stroke="#FFFFFF" stroke-width="5" stroke-linecap="round" stroke-linejoin="round" stroke-miterlimit="10" x1="268.296" y1="557.018" x2="169.993" y2="540.987"/>
	
		<line fill="#FFFFFF" stroke="#FFFFFF" stroke-width="5" stroke-linecap="round" stroke-linejoin="round" stroke-miterlimit="10" x1="478.639" y1="429.503" x2="626.555" y2="357.533"/>
	
		<line fill="#FFFFFF" stroke="#FFFFFF" stroke-width="5" stroke-linecap="round" stroke-linejoin="round" stroke-miterlimit="10" x1="507.944" y1="557.018" x2="606.246" y2="540.987"/>
	<g>
		<path fill="#ABEDED" d="M529.055,561.135c0.938,4.144-1.918,8.319-6.387,9.257c-86.347,18.131-175.52,18.13-261.867,0
			c-4.467-0.938-7.32-5.113-6.383-9.257c10.321-46.171,20.641-92.342,30.961-138.514c0.937-4.143,4.403-6.891,7.749-6.189
			c65.028,13.654,132.185,13.655,197.213,0.001c3.348-0.702,6.815,2.046,7.752,6.188
			C508.414,468.793,518.734,514.964,529.055,561.135z"/>
	</g>
	<path fill="none" stroke="#FFFFFF" stroke-width="5" stroke-linecap="round" stroke-linejoin="round" stroke-miterlimit="10" d="
		M520.126,538.826c-84.671,17.781-172.112,17.781-256.781,0"/>
	<path fill="none" stroke="#FFFFFF" stroke-width="5" stroke-linecap="round" stroke-linejoin="round" stroke-miterlimit="10" d="
		M499.961,442.871c-71.576,13.012-144.808,13.016-216.388,0.011"/>
	<path fill="none" stroke="#FFFFFF" stroke-width="5" stroke-linecap="round" stroke-linejoin="round" stroke-miterlimit="10" d="
		M511.557,493.184c-79.247,14.408-160.329,14.413-239.579,0.013"/>
	
		<path fill="#ABEDED" stroke="#FFFFFF" stroke-width="5" stroke-linecap="round" stroke-linejoin="round" stroke-miterlimit="10" d="
		M433.737,432.649c-20.233,0-25.788,8.248-25.674,22.284c0.109,14.029-13.425,15.444-16.722,15.444
		c-3.312,0-16.859-1.415-16.973-15.444c-0.113-14.036-5.793-22.284-26.02-22.284"/>
	<path fill="none" stroke="#082D53" stroke-width="5" stroke-linecap="round" stroke-linejoin="round" stroke-miterlimit="10" d="
		M628.155,541.938"/>
	<path fill="#FFFFFF" d="M371.911,354.444c0,6.332-5.928,11.567-13.6,12.292c-0.599,0.068-1.205,0.092-1.83,0.092H319.3
		c-8.534,0-15.455-5.556-15.455-12.385c0-3.424,1.736-6.518,4.526-8.76c2.8-2.234,6.662-3.617,10.929-3.617h37.181
		C365.013,342.067,371.911,347.605,371.911,354.444z"/>
	<path fill="#082D53" d="M361.667,355.607c0,4.123-1.231,7.934-3.355,11.129c-0.599,0.068-1.205,0.092-1.83,0.092h-32.055
		c-2.151-3.212-3.399-7.056-3.399-11.222c0-5.202,1.964-9.949,5.177-13.54h30.252C359.686,345.658,361.667,350.405,361.667,355.607z
		"/>
	<path fill="#FFFFFF" d="M472.384,354.444c0,6.332-5.928,11.567-13.602,12.292c-0.597,0.068-1.204,0.092-1.828,0.092h-37.183
		c-8.532,0-15.454-5.556-15.454-12.385c0-3.424,1.736-6.518,4.528-8.76c2.798-2.234,6.66-3.617,10.926-3.617h37.183
		C465.486,342.067,472.384,347.605,472.384,354.444z"/>
	<path fill="#082D53" d="M456.377,355.607c0,4.123-1.23,7.934-3.355,11.129c-0.599,0.068-1.206,0.092-1.829,0.092h-32.056
		c-2.151-3.212-3.398-7.056-3.398-11.222c0-5.202,1.965-9.949,5.177-13.54h30.252C454.396,345.658,456.377,350.405,456.377,355.607z
		"/>
</g>
</svg>
