<?xml version="1.0" encoding="utf-8"?>
<!-- Generator: Adobe Illustrator 16.0.0, SVG Export Plug-In . SVG Version: 6.00 Build 0)  -->
<!DOCTYPE svg PUBLIC "-//W3C//DTD SVG 1.1//EN" "http://www.w3.org/Graphics/SVG/1.1/DTD/svg11.dtd">
<svg version="1.1" id="Layer_1" xmlns="http://www.w3.org/2000/svg" xmlns:xlink="http://www.w3.org/1999/xlink" x="0px" y="0px"
	 width="768px" height="768px" viewBox="0 0 768 768" enable-background="new 0 0 768 768" xml:space="preserve">
<g>
	
		<path fill="#FFFFFF" stroke="#FFFFFF" stroke-width="3" stroke-linecap="round" stroke-linejoin="round" stroke-miterlimit="10" d="
		M676.989,555.563c0,8.362-0.419,16.617-1.14,24.773H133.782c-0.75-8.156-1.142-16.411-1.142-24.773
		c0-83.169,37.289-157.609,96.084-207.542c5.194-4.407,10.575-8.629,16.099-12.648c10.037-7.322,20.594-13.966,31.603-19.862
		c34.806-18.646,74.148-29.965,115.931-31.831c4.139-0.184,8.273-0.288,12.452-0.288c24.9,0,49.014,3.331,71.915,9.602
		C592.139,324.532,676.989,430.16,676.989,555.563z"/>
	
		<path fill="#082D53" stroke="#082D53" stroke-width="3" stroke-linecap="round" stroke-linejoin="round" stroke-miterlimit="10" d="
		M676.989,555.563c0,8.362-0.419,16.617-1.14,24.773H312.784c0.748-3.147,0.518-6.538,2.361-9.582
		c79.156-130.955,27.194-192.543-70.321-235.382c10.037-7.322,20.594-13.966,31.603-19.862
		c34.806-18.646,74.148-29.965,115.931-31.831c29.075,0.89,57.323,4.079,84.367,9.313
		C592.139,324.532,676.989,430.16,676.989,555.563z"/>
	<g>
		<path fill="#FFFFFF" d="M153.087,453.956c12.086,15.787,27.13,35.427,27.13,72.676c0,14.28-11.591,25.869-25.869,25.869
			c-14.28,0-25.868-11.589-25.868-25.869c0-19.718-6.56-28.287-16.471-41.243c-12.086-15.79-27.11-35.448-27.11-72.679
			c0-37.249,15.023-56.907,27.11-72.699c9.911-12.952,16.471-21.522,16.471-41.244c0-15.849-4.241-24.48-11.047-34
			c-1.658-2.339-3.479-4.718-5.424-7.264c-12.086-15.79-27.11-35.452-27.11-72.683c0-14.296,11.566-25.864,25.866-25.864
			c14.282,0,25.871,11.568,25.871,25.864c0,19.726,6.538,28.295,16.451,41.248c5.422,7.074,11.448,14.943,16.391,24.813
			c6.162,12.146,10.739,27.338,10.739,47.886c0,37.229-15.044,56.892-27.13,72.679c-9.913,12.974-16.451,21.545-16.451,41.264
			C136.636,432.434,143.174,440.978,153.087,453.956z"/>
	</g>
	<path fill="none" stroke="#FFFFFF" stroke-width="3" stroke-linecap="round" stroke-linejoin="round" stroke-miterlimit="10" d="
		M370.123,539.893c0,0,65.21,0,77.834,0s42.231,4.754,42.231,40.448"/>
	<path fill="none" stroke="#FFFFFF" stroke-width="3" stroke-linecap="round" stroke-linejoin="round" stroke-miterlimit="10" d="
		M489.749,574.271c0,0,7.877-34.282,46.506-34.282h74.238"/>
	
		<path fill="#FFFFFF" stroke="#FFFFFF" stroke-width="3" stroke-linecap="round" stroke-linejoin="round" stroke-miterlimit="10" d="
		M676.989,555.563c0,8.362-0.419,16.617-1.14,24.773h-10.864c-20.634-21.462-33.318-50.6-33.318-82.718
		c0-22.783,6.374-44.056,17.442-62.164C666.973,471.688,676.989,512.456,676.989,555.563z"/>
	
		<path fill="#082D53" stroke="#082D53" stroke-width="3" stroke-linecap="round" stroke-linejoin="round" stroke-miterlimit="10" d="
		M169.478,250.881c-15.15,7.988-32.924,12.976-52.045,13.886c-1.658-2.339-3.479-4.718-5.424-7.264
		c-12.086-15.79-27.11-35.452-27.11-72.683c0-14.296,11.566-25.864,25.866-25.864c14.282,0,25.871,11.568,25.871,25.864
		c0,19.726,6.538,28.295,16.451,41.248C158.509,233.143,164.535,241.012,169.478,250.881z"/>
	<g>
		
			<polygon fill="#FF9781" stroke="#FF9781" stroke-width="3" stroke-linecap="round" stroke-linejoin="round" stroke-miterlimit="10" points="
			351.324,276.784 356.975,358.21 402.051,309.778 		"/>
		
			<path fill="#FFFFFF" stroke="#FFFFFF" stroke-width="3" stroke-linecap="round" stroke-linejoin="round" stroke-miterlimit="10" d="
			M436.297,285.819c0,0-38.021-13.318-85.81-9.337l47.337,32.95L436.297,285.819z"/>
		
			<path fill="#FFFFFF" stroke="#FFFFFF" stroke-width="3" stroke-linecap="round" stroke-linejoin="round" stroke-miterlimit="10" d="
			M635.186,400.861c0,70.651-65.064,127.935-145.337,127.935c-80.252,0-145.336-57.283-145.336-127.935
			c0-69.905,63.653-126.691,142.706-127.935c0.871-0.02,1.735-0.02,2.631-0.02c74.771,0,136.356,49.706,144.426,113.653
			C634.878,391.26,635.186,396.015,635.186,400.861z"/>
		
			<polygon fill="#FF9781" stroke="#FF9781" stroke-width="3" stroke-linecap="round" stroke-linejoin="round" stroke-miterlimit="10" points="
			633.938,276.784 628.284,358.21 583.205,309.778 		"/>
		
			<path fill="#082D53" stroke="#082D53" stroke-width="3" stroke-linecap="round" stroke-linejoin="round" stroke-miterlimit="10" d="
			M548.959,285.819c0,0,38.025-13.318,85.815-9.337l-47.339,32.95L548.959,285.819z"/>
		<path fill="none" stroke="#082D53" stroke-width="3" stroke-linecap="round" stroke-linejoin="round" stroke-miterlimit="10" d="
			M489.853,394.339c0,10.823-8.773,19.597-19.594,19.597c-10.821,0-19.591-8.773-19.591-19.597"/>
		<path fill="none" stroke="#082D53" stroke-width="3" stroke-linecap="round" stroke-linejoin="round" stroke-miterlimit="10" d="
			M529.041,394.339c0,10.823-8.773,19.597-19.594,19.597c-10.821,0-19.595-8.773-19.595-19.597"/>
		<path fill="#FFAB9C" d="M503.517,392.164c0,3.579-9.193,8.689-12.769,8.689h-0.896c-6.25,0-13.664-5.402-13.664-8.978v-1.926
			c0-3.574,2.899-6.472,6.475-6.472h14.376c3.574,0,6.478,2.897,6.478,6.472V392.164z"/>
		<path fill="none" stroke="#082D53" stroke-width="3" stroke-linecap="round" stroke-linejoin="round" stroke-miterlimit="10" d="
			M468.335,365.914c0,4.964-4.026,8.991-8.993,8.991s-8.989-4.027-8.989-8.991"/>
		<path fill="none" stroke="#082D53" stroke-width="3" stroke-linecap="round" stroke-linejoin="round" stroke-miterlimit="10" d="
			M529.357,365.914c0,4.964-4.027,8.991-8.994,8.991c-4.966,0-8.993-4.027-8.993-8.991"/>
		
			<line fill="none" stroke="#082D53" stroke-width="3" stroke-linecap="round" stroke-linejoin="round" stroke-miterlimit="10" x1="430.514" y1="394.339" x2="269.393" y2="429.039"/>
		
			<line fill="none" stroke="#082D53" stroke-width="3" stroke-linecap="round" stroke-linejoin="round" stroke-miterlimit="10" x1="435.053" y1="404.141" x2="279.445" y2="483.301"/>
		
			<line fill="none" stroke="#082D53" stroke-width="3" stroke-linecap="round" stroke-linejoin="round" stroke-miterlimit="10" x1="435.053" y1="416.625" x2="333.669" y2="511.157"/>
		
			<line fill="none" stroke="#082D53" stroke-width="3" stroke-linecap="round" stroke-linejoin="round" stroke-miterlimit="10" x1="548.919" y1="394.339" x2="710.04" y2="429.039"/>
		
			<line fill="none" stroke="#082D53" stroke-width="3" stroke-linecap="round" stroke-linejoin="round" stroke-miterlimit="10" x1="544.381" y1="404.141" x2="699.991" y2="483.301"/>
		
			<line fill="none" stroke="#082D53" stroke-width="3" stroke-linecap="round" stroke-linejoin="round" stroke-miterlimit="10" x1="544.381" y1="416.625" x2="645.767" y2="511.157"/>
		
			<path fill="#082D53" stroke="#082D53" stroke-width="3" stroke-linecap="round" stroke-linejoin="round" stroke-miterlimit="10" d="
			M634.274,386.56c-106.885-11.007-138.012-75.282-147.057-113.633c0.871-0.02,1.735-0.02,2.631-0.02
			C564.619,272.907,626.205,322.612,634.274,386.56z"/>
	</g>
	<g>
		<polygon fill="#FEFB00" points="490.721,281.404 551.574,281.342 548.779,227.814 519.756,242.498 490.977,220.282 
			490.977,220.214 490.929,220.249 490.893,220.214 490.885,220.282 462.117,242.498 433.085,227.814 430.29,281.342 
			487.901,281.404 487.901,281.41 489.349,281.408 490.721,281.41 		"/>
		<path fill="#FEFB00" d="M498.702,218.779c0,3.981-3.355,7.21-7.498,7.21c-4.135,0-7.489-3.229-7.489-7.21
			c0-3.979,3.354-7.202,7.489-7.202C495.347,211.577,498.702,214.8,498.702,218.779z"/>
		<path fill="#FEFB00" d="M441.171,225.061c0,3.975-3.354,7.206-7.494,7.206c-4.143,0-7.497-3.231-7.497-7.206
			c0-3.983,3.354-7.204,7.497-7.204C437.816,217.857,441.171,221.078,441.171,225.061z"/>
		<path fill="#FEFB00" d="M554.842,225.061c0,3.975-3.352,7.206-7.494,7.206c-4.139,0-7.494-3.231-7.494-7.206
			c0-3.983,3.355-7.204,7.494-7.204C551.49,217.857,554.842,221.078,554.842,225.061z"/>
	</g>
</g>
<line fill="none" stroke="#082D53" stroke-width="3" stroke-linecap="round" stroke-linejoin="round" stroke-miterlimit="10" x1="10.602" y1="580.341" x2="758.957" y2="580.341"/>
</svg>
