<?xml version="1.0" encoding="utf-8"?>
<!-- Generator: Adobe Illustrator 16.0.0, SVG Export Plug-In . SVG Version: 6.00 Build 0)  -->
<!DOCTYPE svg PUBLIC "-//W3C//DTD SVG 1.1//EN" "http://www.w3.org/Graphics/SVG/1.1/DTD/svg11.dtd">
<svg version="1.1" id="Layer_1" xmlns="http://www.w3.org/2000/svg" xmlns:xlink="http://www.w3.org/1999/xlink" x="0px" y="0px"
	 width="679px" height="192px" viewBox="0 0 679 192" enable-background="new 0 0 679 192" xml:space="preserve">
<g>
	<polygon fill="#FFD85A" points="518.274,48.463 482.834,48.507 481.198,48.507 447.65,48.463 448.391,31.153 448.896,19.331 
		449.278,10.449 466.185,20.877 482.936,5.102 482.936,5.057 482.958,5.08 482.987,5.057 482.987,5.102 499.739,20.877 
		516.645,10.449 517.027,19.331 517.532,31.131 	"/>
	
		<line fill="none" stroke="#444CC3" stroke-width="0.8112" stroke-linecap="round" stroke-linejoin="round" stroke-miterlimit="10" x1="448.161" y1="36.566" x2="517.805" y2="36.566"/>
	<g>
		<defs>
			<rect id="SVGID_1_" x="445.257" width="74.917" height="69.076"/>
		</defs>
		<clipPath id="SVGID_2_">
			<use xlink:href="#SVGID_1_"  overflow="visible"/>
		</clipPath>
		<path clip-path="url(#SVGID_2_)" fill="#FF5E5F" d="M489.337,25.247c0,3.271-2.65,5.92-5.919,5.92s-5.919-2.649-5.919-5.92
			c0-3.27,2.65-5.918,5.919-5.918S489.337,21.977,489.337,25.247"/>
		<path clip-path="url(#SVGID_2_)" fill="#FF5E5F" d="M454.75,25.25c0,3.271-2.648,5.919-5.919,5.919
			c-0.146,0-0.293-0.007-0.44-0.016l0.506-11.823C452.139,19.368,454.75,22,454.75,25.25"/>
		<path clip-path="url(#SVGID_2_)" fill="#FF5E5F" d="M517.532,31.131c-0.212,0.022-0.433,0.038-0.652,0.038
			c-3.271,0-5.919-2.648-5.919-5.919c0-3.272,2.647-5.919,5.919-5.919h0.146L517.532,31.131z"/>
		<path clip-path="url(#SVGID_2_)" fill="#FFD85A" d="M487.485,4.364c0,2.411-1.953,4.365-4.364,4.365
			c-2.41,0-4.365-1.954-4.365-4.365c0-2.41,1.955-4.364,4.365-4.364C485.532,0,487.485,1.954,487.485,4.364"/>
		<path clip-path="url(#SVGID_2_)" fill="#FFD85A" d="M453.986,8.167c0,2.411-1.953,4.365-4.364,4.365s-4.365-1.954-4.365-4.365
			c0-2.41,1.954-4.364,4.365-4.364S453.986,5.756,453.986,8.167"/>
		<path clip-path="url(#SVGID_2_)" fill="#FFD85A" d="M520.174,8.167c0,2.411-1.953,4.365-4.364,4.365
			c-2.41,0-4.363-1.954-4.363-4.365c0-2.41,1.953-4.364,4.363-4.364C518.221,3.803,520.174,5.756,520.174,8.167"/>
	</g>
</g>
<text transform="matrix(1 0 0 1 0 126.6191)"><tspan x="0" y="0" fill="#FFD85A" font-family="'HeroinePro-Bold'" font-size="137.1685">D</tspan><tspan x="105.618" y="0" fill="#FFD85A" font-family="'HeroinePro-Bold'" font-size="137.1685" letter-spacing="-6">r</tspan><tspan x="152.53" y="0" fill="#FFD85A" font-family="'HeroinePro-Bold'" font-size="137.1685">.</tspan><tspan x="187.096" y="0" fill="#FFD85A" font-family="'HeroinePro-Bold'" font-size="137.1685" letter-spacing="-1"> </tspan><tspan x="216.037" y="0" fill="#FFD85A" font-family="'HeroinePro-Bold'" font-size="137.1685" letter-spacing="-1">C</tspan><tspan x="308.625" y="0" fill="#FFD85A" font-family="'HeroinePro-Bold'" font-size="137.1685">o</tspan><tspan x="389.828" y="0" fill="#FFD85A" font-family="'HeroinePro-Bold'" font-size="137.1685">r</tspan><tspan x="442.912" y="0" fill="#FFD85A" font-family="'HeroinePro-Bold'" font-size="137.1685">o</tspan><tspan x="524.115" y="0" fill="#FFD85A" font-family="'HeroinePro-Bold'" font-size="137.1685">n</tspan><tspan x="603.535" y="0" fill="#FFD85A" font-family="'HeroinePro-Bold'" font-size="137.1685">a</tspan></text>
</svg>
