<?xml version="1.0" encoding="utf-8"?>
<!-- Generator: Adobe Illustrator 16.0.0, SVG Export Plug-In . SVG Version: 6.00 Build 0)  -->
<!DOCTYPE svg PUBLIC "-//W3C//DTD SVG 1.1//EN" "http://www.w3.org/Graphics/SVG/1.1/DTD/svg11.dtd">
<svg version="1.1" id="Layer_1" xmlns="http://www.w3.org/2000/svg" xmlns:xlink="http://www.w3.org/1999/xlink" x="0px" y="0px"
	 width="272px" height="238px" viewBox="0 0 272 238" enable-background="new 0 0 272 238" xml:space="preserve">
<g>
	<path fill="#FFFFFF" d="M258.521,112.058c-5.399-5.76-12.304-10.162-20.104-12.842c-0.054-1.423-0.158-2.89-0.313-4.384
		c-0.894-8.591-3.027-15.602-6.343-20.835c-3.2-5.053-7.504-8.358-12.523-9.646c-6.006-8.406-13.02-15.889-23.096-16.056
		c-2.007-1.5-3.976-2.842-5.888-4.015c0.272-1.431,0.409-2.89,0.409-4.363c0-3.857-0.932-7.611-2.706-10.958
		c0.261-1.352,0.393-2.725,0.393-4.102c0-12.061-9.813-21.874-21.874-21.874c-4.502,0-8.874,1.404-12.519,3.949
		c-4.107-4.588-10.019-7.302-16.305-7.302c-6.477,0-12.479,2.826-16.582,7.608c-3.722-2.743-8.244-4.255-12.954-4.255
		c-12.062,0-21.874,9.813-21.874,21.874c0,1.525,0.155,3.038,0.463,4.517c-1.661,3.254-2.532,6.865-2.532,10.542
		c0,1.506,0.146,2.999,0.435,4.464c-1.86,1.147-3.774,2.458-5.722,3.914c-4.798,0.077-9.192,1.775-13.421,5.185
		c-3.08,2.483-6.098,5.869-9.676,10.871c-5.016,1.287-9.316,4.587-12.516,9.634c-3.315,5.228-5.451,12.229-6.348,20.81
		c-0.13,1.245-0.226,2.473-0.286,3.674c-11.169,3.164-18.559,8.861-22.898,13.263c-9.255,9.391-14.353,22.362-14.353,36.524
		c0,12.807,4.187,23.973,12.108,32.289c6.015,6.314,17.069,13.84,35.577,13.84c2.817,0,5.763-0.18,8.788-0.536
		c8.701,13.236,20.457,24.282,34.136,32.048c14.554,8.262,30.983,12.629,47.512,12.629c18.846,0,37.163-5.496,52.974-15.893
		c11.417-7.507,21.02-17.123,28.572-28.609c2.336,0.234,4.621,0.354,6.822,0.354c18.136,0,28.923-7.703,34.779-14.165
		c7.494-8.267,11.455-19.317,11.455-31.956C272.112,134.264,267.285,121.408,258.521,112.058z"/>
	<path fill="#082D53" d="M253.413,114.871c-4.228-4.511-10.882-9.612-20.762-12.396c0.031-2.088-0.069-4.348-0.323-6.794
		c-1.639-15.753-7.753-25.339-16.936-26.806c-6.422-9.223-12.4-15.364-20.694-15.364c-0.318,0-0.635,0.01-0.948,0.029
		c-2.895-2.232-5.953-4.317-9.048-5.995c0.669-1.941,1.03-4.021,1.03-6.182c0-3.742-1.061-7.216-2.904-10.138
		c0.413-1.489,0.634-3.047,0.634-4.645c0-9.677-7.872-17.549-17.549-17.549c-5.128,0-9.748,2.211-12.96,5.73
		c-3.003-5.377-8.752-9.022-15.336-9.022c-6.782,0-12.679,3.869-15.599,9.517c-3.222-3.806-8.033-6.225-13.397-6.225
		c-9.677,0-17.549,7.873-17.549,17.549c0,1.731,0.249,3.406,0.713,4.989c-1.74,2.858-2.743,6.211-2.743,9.794
		c0,2.186,0.379,4.293,1.076,6.259c-3.047,1.666-6.058,3.72-8.908,5.92c-0.316-0.021-0.633-0.031-0.947-0.031
		c-8.294,0-14.273,6.142-20.695,15.364c-9.175,1.465-15.288,11.039-16.933,26.771c-0.234,2.241-0.339,4.328-0.333,6.268
		c-11.355,2.577-18.87,7.974-23.535,12.707c-8.357,8.481-12.961,20.236-12.961,33.101c0,11.545,3.736,21.57,10.803,28.991
		c5.375,5.643,15.305,12.369,32.084,12.369c3.37,0,6.909-0.274,10.588-0.821c16.872,27.176,46.367,44.154,78.196,44.154
		c17.73,0,34.968-5.17,49.848-14.955c11.379-7.482,20.992-17.383,28.226-28.992c2.997,0.403,5.896,0.605,8.678,0.605h0.001
		c16.364,0,26.02-6.86,31.235-12.615c6.691-7.383,10.229-17.32,10.229-28.736C265.695,134.986,261.332,123.32,253.413,114.871z"/>
	<g>
		<path fill="#FFAB9C" d="M217.859,137.309c0,45.945-35.999,83.191-80.414,83.191c-44.41,0-80.416-37.246-80.416-83.191
			c0-45.946,36.005-83.191,80.416-83.191C181.86,54.117,217.859,91.362,217.859,137.309z"/>
		
			<circle fill="#FFFFFF" stroke="#FFFFFF" stroke-width="1.5534" stroke-linecap="round" stroke-linejoin="round" stroke-miterlimit="10" cx="118.632" cy="54.117" r="10.957"/>
		
			<circle fill="#FFFFFF" stroke="#FFFFFF" stroke-width="1.5534" stroke-linecap="round" stroke-linejoin="round" stroke-miterlimit="10" cx="156.395" cy="54.055" r="10.957"/>
		
			<circle fill="#FFFFFF" stroke="#FFFFFF" stroke-width="1.5534" stroke-linecap="round" stroke-linejoin="round" stroke-miterlimit="10" cx="135.751" cy="57.42" r="16.15"/>
		<g>
			<polygon fill="#FEFB00" points="137.338,60.424 168.579,60.387 167.146,26.873 152.242,36.065 137.469,22.158 137.469,22.114 
				137.447,22.135 137.426,22.114 137.422,22.159 122.654,36.065 107.748,26.873 106.314,60.387 135.891,60.424 135.891,60.428 
				136.633,60.426 137.338,60.428 			"/>
			
				<line fill="none" stroke="#082D53" stroke-width="1.5534" stroke-linecap="round" stroke-linejoin="round" stroke-miterlimit="10" x1="106.762" y1="49.899" x2="168.169" y2="49.899"/>
			<circle fill="#082D53" cx="137.85" cy="39.918" r="5.219"/>
			<circle fill="#082D53" cx="107.354" cy="39.918" r="5.219"/>
			<circle fill="#082D53" cx="167.351" cy="39.918" r="5.219"/>
			<circle fill="#FEFB00" cx="137.588" cy="21.506" r="3.849"/>
			<circle fill="#FEFB00" cx="108.052" cy="24.858" r="3.849"/>
			<circle fill="#FEFB00" cx="166.41" cy="24.858" r="3.848"/>
		</g>
		<path fill="#FFAB9C" d="M65.125,173.844c-32.935,8.645-47.205-6.243-47.205-25.588c0-19.344,13.596-36.466,43.402-33.952"/>
		
			<path fill="none" stroke="#082D53" stroke-width="1.5534" stroke-linecap="round" stroke-linejoin="round" stroke-miterlimit="10" d="
			M26.25,143.963c0,0,16.994-13.314,32.967-0.439"/>
		
			<path fill="none" stroke="#082D53" stroke-width="2.3301" stroke-linecap="round" stroke-linejoin="round" stroke-miterlimit="10" d="
			M52.166,139.424c0,0-10.049-1.193-11.401,14.849"/>
		<path fill="#FFAB9C" d="M209.126,173.844c31.324,8.645,44.896-6.243,44.896-25.588c0-19.344-12.929-36.466-41.276-33.952"/>
		
			<path fill="none" stroke="#082D53" stroke-width="1.5534" stroke-linecap="round" stroke-linejoin="round" stroke-miterlimit="10" d="
			M246.1,143.963c0,0-16.159-13.314-31.354-0.439"/>
		
			<path fill="none" stroke="#082D53" stroke-width="1.5534" stroke-linecap="round" stroke-linejoin="round" stroke-miterlimit="10" d="
			M221.456,139.424c0,0,9.554-1.193,10.835,14.849"/>
		
			<path fill="none" stroke="#082D53" stroke-width="1.5534" stroke-linecap="round" stroke-linejoin="round" stroke-miterlimit="10" d="
			M133.438,112.167c0,0,4.333-3.379,8.667,0"/>
		<path fill="#ABCFDB" d="M133.374,113.337c0,6.635-5.378,12.014-12.012,12.014c-6.639,0-12.016-5.379-12.016-12.014
			c0-6.636,5.377-12.016,12.016-12.016C127.995,101.321,133.374,106.701,133.374,113.337z"/>
		<path fill="#ABCFDB" d="M142.706,113.337c0,6.635,5.381,12.014,12.012,12.014c6.64,0,12.02-5.379,12.02-12.014
			c0-6.636-5.38-12.016-12.02-12.016C148.087,101.321,142.706,106.701,142.706,113.337z"/>
		
			<path fill="#FFFFFF" stroke="#FFFFFF" stroke-width="1.5534" stroke-linecap="round" stroke-linejoin="round" stroke-miterlimit="10" d="
			M130.452,101.974c3.05-0.453,4.489-1.231,4.238-4.633c-0.252-3.403-1.429-3.46-6.635-2.541
			c-6.161,1.085-15.222,4.065-20.702,9.218c0,0,4.888-1.2,6.138-1.174l-5.441,7.122C108.051,109.966,115.566,104.17,130.452,101.974
			z"/>
		
			<path fill="#FFFFFF" stroke="#FFFFFF" stroke-width="1.5534" stroke-linecap="round" stroke-linejoin="round" stroke-miterlimit="10" d="
			M144.58,101.974c-3.05-0.453-4.486-1.231-4.238-4.633c0.253-3.403,1.429-3.46,6.634-2.541c6.165,1.085,15.225,4.065,20.706,9.218
			c0,0-4.892-1.2-6.141-1.174l5.441,7.122C166.982,109.966,159.466,104.17,144.58,101.974z"/>
		
			<path fill="#FFFFFF" stroke="#FFFFFF" stroke-width="1.5534" stroke-linecap="round" stroke-linejoin="round" stroke-miterlimit="10" d="
			M60.981,114.059c-14.055,0-3.177-45.62,1.969-28.413c0,0,17.001-29.446,17.646-15.646c0,0,24.308-22.997,25.241-9.612
			L60.981,114.059z"/>
		
			<path fill="#FFFFFF" stroke="#FFFFFF" stroke-width="1.5534" stroke-linecap="round" stroke-linejoin="round" stroke-miterlimit="10" d="
			M213.438,114.059c14.052,0,3.176-45.62-1.972-28.413c0,0-17-29.446-17.643-15.646c0,0-24.312-22.997-25.245-9.612L213.438,114.059
			z"/>
		
			<path fill="none" stroke="#082D53" stroke-width="1.5534" stroke-linecap="round" stroke-linejoin="round" stroke-miterlimit="10" d="
			M59.954,114.08c0.054,0.113,49.225,0,49.225,0"/>
		
			<path fill="none" stroke="#082D53" stroke-width="1.5534" stroke-linecap="round" stroke-linejoin="round" stroke-miterlimit="10" d="
			M214.817,114.08c-0.053,0.113-48.325,0-48.325,0"/>
		
			<path fill="none" stroke="#FFFFFF" stroke-width="1.5534" stroke-linecap="round" stroke-linejoin="round" stroke-miterlimit="10" d="
			M71.615,99.599c0,0-11.452-13.639-3.32-35.587"/>
		
			<path fill="none" stroke="#FFFFFF" stroke-width="1.5534" stroke-linecap="round" stroke-linejoin="round" stroke-miterlimit="10" d="
			M205.415,96.917c0,0,11.736-11.766,3.401-30.698"/>
		
			<line fill="none" stroke="#082D53" stroke-width="1.5534" stroke-linecap="round" stroke-linejoin="round" stroke-miterlimit="10" x1="118.154" y1="86.933" x2="156.735" y2="86.933"/>
		
			<line fill="none" stroke="#082D53" stroke-width="1.5534" stroke-linecap="round" stroke-linejoin="round" stroke-miterlimit="10" x1="123.878" y1="79.124" x2="151.013" y2="79.124"/>
		
			<line fill="none" stroke="#082D53" stroke-width="1.5534" stroke-linecap="round" stroke-linejoin="round" stroke-miterlimit="10" x1="165.275" y1="133.914" x2="170.777" y2="133.914"/>
		
			<line fill="none" stroke="#082D53" stroke-width="1.5534" stroke-linecap="round" stroke-linejoin="round" stroke-miterlimit="10" x1="104.998" y1="133.914" x2="110.499" y2="133.914"/>
		<path fill="#082D53" d="M132.023,148.586c-0.544-1.572-4.714-7.277-10.048-9.185c-2.679-0.958,6.729-2.401,6.729-2.401
			l4.672,5.467C133.376,142.467,132.567,150.155,132.023,148.586z"/>
		<path fill="#082D53" d="M144.264,148.586c0.545-1.572,4.715-7.277,10.049-9.185c2.679-0.958-6.729-2.401-6.729-2.401l-4.672,5.467
			C142.912,142.467,143.721,150.155,144.264,148.586z"/>
		
			<path fill="none" stroke="#082D53" stroke-width="1.5534" stroke-linecap="round" stroke-linejoin="round" stroke-miterlimit="10" d="
			M167.808,133.914c0,16.438-13.326,29.764-29.764,29.764s-29.764-13.325-29.764-29.764"/>
		
			<line fill="none" stroke="#082D53" stroke-width="1.5534" stroke-linecap="round" stroke-linejoin="round" stroke-miterlimit="10" x1="138.044" y1="173.143" x2="138.044" y2="181.936"/>
		<circle fill="#082D53" cx="95.683" cy="146.24" r="2.278"/>
		<path fill="#FFFFFF" d="M132.095,113.333c0,2.752-2.227,4.985-4.979,4.985H115.12c-2.752,0-4.985-2.233-4.985-4.985
			c0-1.376,0.559-2.623,1.461-3.525c0.902-0.897,2.147-1.454,3.524-1.454h11.997C129.868,108.354,132.095,110.581,132.095,113.333z"
			/>
		<path fill="#082D53" d="M118.462,108.354c-1.682,1.181-2.785,3.142-2.785,5.356c0,1.804,0.726,3.426,1.902,4.608h9.296
			c1.181-1.182,1.914-2.804,1.914-4.608c0-2.214-1.11-4.169-2.792-5.356H118.462z"/>
		<path fill="#FFFFFF" d="M165.773,113.333c0,2.752-2.228,4.985-4.98,4.985h-11.996c-2.753,0-4.984-2.233-4.984-4.985
			c0-1.376,0.559-2.623,1.46-3.525c0.902-0.897,2.148-1.454,3.524-1.454h11.996C163.546,108.354,165.773,110.581,165.773,113.333z"
			/>
		<path fill="#082D53" d="M149.732,108.354c-1.682,1.181-2.784,3.142-2.784,5.356c0,1.804,0.727,3.426,1.901,4.608h9.297
			c1.181-1.182,1.914-2.804,1.914-4.608c0-2.214-1.11-4.169-2.791-5.356H149.732z"/>
		
			<path fill="none" stroke="#082D53" stroke-width="1.5534" stroke-linecap="round" stroke-linejoin="round" stroke-miterlimit="10" d="
			M133.129,113.337c0,6.635-5.379,12.014-12.012,12.014c-6.638,0-12.016-5.379-12.016-12.014c0-6.636,5.378-12.016,12.016-12.016
			C127.75,101.321,133.129,106.701,133.129,113.337z"/>
		
			<path fill="none" stroke="#082D53" stroke-width="1.5534" stroke-linecap="round" stroke-linejoin="round" stroke-miterlimit="10" d="
			M142.462,113.337c0,6.635,5.38,12.014,12.011,12.014c6.64,0,12.02-5.379,12.02-12.014c0-6.636-5.38-12.016-12.02-12.016
			C147.842,101.321,142.462,106.701,142.462,113.337z"/>
		
			<path fill="#FFAB9C" stroke="#082D53" stroke-width="1.5534" stroke-linecap="round" stroke-linejoin="round" stroke-miterlimit="10" d="
			M153.881,128.994c5.448,2.879,5.621,9.924-1.082,9.924c-6.707,0-8.548,2.734-8.511,7.386c0.036,4.65-4.448,5.118-5.542,5.118
			c-1.098,0-5.588-0.468-5.626-5.118c-0.038-4.651-1.919-7.386-8.624-7.386c-6.708,0-6.648-7.045-1.242-9.924"/>
		
			<path fill="none" stroke="#082D53" stroke-width="1.5534" stroke-linecap="round" stroke-linejoin="round" stroke-miterlimit="10" d="
			M134.111,112.487c0,0-2.656,11.362-0.564,24.833"/>
		
			<path fill="none" stroke="#082D53" stroke-width="1.5534" stroke-linecap="round" stroke-linejoin="round" stroke-miterlimit="10" d="
			M142.258,112.487c0,0,2.838,11.362,0.965,24.833"/>
	</g>
</g>
</svg>
