<?xml version="1.0" encoding="utf-8"?>
<!-- Generator: Adobe Illustrator 16.0.0, SVG Export Plug-In . SVG Version: 6.00 Build 0)  -->
<!DOCTYPE svg PUBLIC "-//W3C//DTD SVG 1.1//EN" "http://www.w3.org/Graphics/SVG/1.1/DTD/svg11.dtd">
<svg version="1.1" id="Layer_1" xmlns="http://www.w3.org/2000/svg" xmlns:xlink="http://www.w3.org/1999/xlink" x="0px" y="0px"
	 width="768px" height="768px" viewBox="0 0 768 768" enable-background="new 0 0 768 768" xml:space="preserve">
<g>
	<path fill="#FFFFFF" d="M699.179,324.412c-13.736-14.655-31.303-25.854-51.148-32.673c-0.135-3.622-0.402-7.351-0.797-11.154
		c-2.273-21.857-7.703-39.692-16.139-53.009c-8.139-12.854-19.088-21.265-31.861-24.539c-15.279-21.388-33.121-40.425-58.76-40.85
		c-5.105-3.816-10.115-7.231-14.979-10.214c0.693-3.642,1.039-7.353,1.039-11.1c0-9.813-2.369-19.363-6.883-27.88
		c0.664-3.438,0.998-6.932,0.998-10.434c0-30.686-24.963-55.652-55.65-55.652c-11.453,0-22.576,3.573-31.852,10.049
		c-10.449-11.674-25.486-18.579-41.48-18.579c-16.478,0-31.75,7.19-42.187,19.355c-9.47-6.977-20.974-10.826-32.958-10.826
		c-30.688,0-55.652,24.966-55.652,55.652c0,3.88,0.396,7.728,1.18,11.491c-4.225,8.279-6.441,17.467-6.441,26.823
		c0,3.832,0.371,7.628,1.106,11.356c-4.735,2.92-9.602,6.252-14.559,9.958c-12.208,0.197-23.387,4.518-34.146,13.192
		c-7.836,6.317-15.515,14.931-24.619,27.657c-12.761,3.273-23.703,11.671-31.843,24.51c-8.434,13.301-13.869,31.114-16.151,52.945
		c-0.331,3.169-0.573,6.292-0.725,9.347c-28.417,8.05-47.218,22.545-58.257,33.743c-23.548,23.895-36.516,56.894-36.516,92.923
		c0,32.586,10.651,60.994,30.804,82.151c15.303,16.063,43.428,35.212,90.516,35.212c7.167,0,14.662-0.458,22.357-1.365
		c22.139,33.678,52.047,61.78,86.849,81.535c37.027,21.021,78.826,32.131,120.881,32.131c47.944,0,94.548-13.98,134.774-40.432
		c29.047-19.1,53.479-43.566,72.693-72.789c5.943,0.597,11.758,0.898,17.357,0.898c46.139,0,73.586-19.598,88.486-36.037
		c19.066-21.033,29.145-49.148,29.145-81.305C733.761,380.905,721.478,348.2,699.179,324.412z"/>
	<g>
		
			<path fill="#FFFFFF" stroke="#FFFFFF" stroke-width="92" stroke-linecap="round" stroke-linejoin="round" stroke-miterlimit="10" d="
			M263.174,658.357c-2.157-0.859-4.398-1.295-6.664-1.295c-6.99,0-13.147,4.121-15.684,10.497c-0.501,1.259-0.837,2.534-1.031,3.808
			c-0.079-0.199-0.154-0.398-0.25-0.59c-0.016-1.35,0.22-3.983,0.399-5.988c0.337-3.749,0.719-8,0.588-12.242
			c-0.104-2.704-0.402-5.201-0.905-7.518c9.236-0.697,16.944-5.547,21.879-13.83c5.143-8.633,5.711-17.963,1.648-26.977
			c-3.779-8.38-11.368-16.008-22.555-22.671l-20.269-12.073c-3.448-2.054-7.908-0.924-9.962,2.524l-0.393,0.659
			c-0.67,1.128-1.023,2.413-1.023,3.721c-0.144,0.949-1.15,3.343-1.679,4.25l-5.46,9.166c2.341-6.131,3.139-12.539,2.325-19.057
			c-1.499-11.989-8.251-24.053-20.074-35.854l-18.093-18.065c-2.84-2.835-7.439-2.833-10.276,0.008l-0.543,0.543
			c-0.926,0.93-1.583,2.088-1.903,3.357c-0.372,0.883-1.934,2.959-2.669,3.709l-47.914,47.987c-1.361,1.366-2.125,3.214-2.123,5.142
			c0,1.928,0.768,3.775,2.132,5.136l22.208,22.175c11.064,11.048,22.668,16.648,34.488,16.649c0.001,0,0.001,0,0.003,0
			c10.965,0,21.303-4.783,30.722-14.218c1.328-1.33,2.564-2.688,3.711-4.069l-21.235,35.652c-2.055,3.448-0.925,7.907,2.524,9.963
			l19.138,11.399c3.446,2.053,7.907,0.922,9.961-2.526l0.393-0.659c0.986-1.655,1.274-3.635,0.802-5.504
			c-0.04-0.15-0.082-0.302-0.13-0.449c0.439-1.157,1.245-2.838,1.988-4.086l2.336-3.923c-0.678,5.095-2.898,13.384-4.206,16.549
			c-1.378,3.333-0.102,7.177,2.997,9.021l20.552,12.24c1.166,0.695,2.447,1.025,3.711,1.025c2.477,0,4.891-1.267,6.25-3.549
			l0.393-0.66c0.22-0.369,0.388-0.752,0.537-1.141c0.94,5.742,4.855,10.83,10.843,13.212c2.261,0.899,4.585,1.356,6.906,1.356h0.001
			c6.97,0,13.144-4.194,15.725-10.684c1.681-4.225,1.537-8.862-0.405-13.057C270.986,663.311,267.536,660.092,263.174,658.357z
			 M172.59,565.648c-1.072,6.154-4.958,12.842-10.943,18.837c-4.898,4.907-9.352,7.498-12.879,7.498
			c-2.594,0-5.221-1.416-8.266-4.456c-1.26-1.257-1.867-2.07-2.15-2.52c0.267-0.389,0.799-1.061,1.836-2.1l29.501-29.545
			C173.143,557.314,173.193,562.178,172.59,565.648z M230.648,616.012c-1.676,2.813-3.421,4.492-4.67,4.492
			c-0.62,0-1.477-0.295-2.431-0.836l9.11-15.295C233.874,606.538,234.166,610.105,230.648,616.012z"/>
		
			<path fill="#FFFFFF" stroke="#FFFFFF" stroke-width="92" stroke-linecap="round" stroke-linejoin="round" stroke-miterlimit="10" d="
			M375.803,688.461c-2.3-3.234-6.773-4.026-10.043-1.774c-3.262,2.247-6.408,3.339-9.617,3.339c-0.7,0-1.428-0.052-2.157-0.154
			c-5.28-0.738-9.284-3.799-11.903-9.094c-2.89-5.846-3.798-13.949-2.559-22.818c2.042-14.613,7.361-14.613,9.362-14.613
			c0.569,0,1.186,0.046,1.833,0.137c6.753,0.944,12.807,6.078,16.609,14.088c1.208,2.543,3.78,4.135,6.588,4.149l1.554-0.005
			c3.863-0.012,7.042-3.047,7.234-6.906l0.981-19.695c0.118-2.393-0.95-4.69-2.854-6.141c-3.984-3.036-12.626-7.141-23.875-8.713
			c-3.028-0.422-6.028-0.638-8.916-0.638c-11.918,0-22.4,3.638-30.312,10.52c-8.142,7.083-13.375,17.481-15.135,30.078
			c-1.974,14.114,0.857,26.673,8.182,36.319c7.128,9.387,17.928,15.332,31.23,17.192c2.551,0.355,5.062,0.536,7.462,0.536
			c11.619,0,21.336-4.109,28.88-12.215c2.349-2.525,2.6-6.352,0.604-9.162L375.803,688.461z"/>
		
			<path fill="#FFFFFF" stroke="#FFFFFF" stroke-width="92" stroke-linecap="round" stroke-linejoin="round" stroke-miterlimit="10" d="
			M671.862,558.407c-2.023-1.616-4.754-2.032-7.162-1.099c-0.318,0-2.107-0.117-6.123-2.425l-13.914-8.048
			c-8.51-4.934-14.977-7.131-20.971-7.131c-7.252,0-13.754,3.229-19.873,9.871c-8.258,8.961-11.6,19.609-9.17,29.221
			c0.863,3.41,4.045,5.719,7.555,5.467l5.266-0.369c1.666-0.116,3.158-0.786,4.316-1.816c-0.385,1.473-0.652,2.914-0.807,4.326
			c-0.59,5.396,0.535,10.395,3.258,14.744l-8.375-8.664c-6.811-7.116-15.113-14.393-25.055-14.393c-4.678,0-9.307,1.649-13.76,4.901
			c-3.717,2.714-6.549,5.913-8.533,9.655c-0.895-0.213-1.834-0.256-2.768-0.115c-2.324,0.355-4.336,1.813-5.395,3.914
			c-1.619,3.211-5.117,6.824-7.732,8.734c-1.557,1.138-2.598,2.846-2.895,4.751c-0.297,1.903,0.176,3.849,1.313,5.403l3.139,4.3
			c-5.438-3.743-11.805-5.782-18.623-5.782c-5.436,0-11.02,1.279-16.596,3.798c-9.482,4.286-16.238,10.898-19.664,19.199
			l-0.641-1.821c-0.809-2.297-2.715-4.035-5.076-4.629c-0.926-0.234-1.938-0.354-3.004-0.354c-1.869,0-3.65,0.357-4.816,0.656
			c-4.008,1.033-6.959,3.02-9.146,5.43c-0.813-0.615-1.754-1.062-2.775-1.295c-2.311-0.529-4.73,0.103-6.488,1.691
			c-2.586,2.334-7.221,4.402-10.465,5.237c-3.887,1.001-6.227,4.964-5.227,8.851l1.553,6.021
			c-6.32-8.732-16.471-13.928-28.707-13.928c-1.217,0-2.471,0.051-3.723,0.152c-11.141,0.881-20.235,5.351-26.303,12.923
			c-5.554,6.932-8.181,16.198-7.398,26.093c1.6,20.207,15.603,33.264,35.679,33.266h0.002c1.254,0,2.545-0.053,3.84-0.156
			c11.17-0.884,20.25-5.35,26.258-12.915c4.113-5.181,6.584-11.685,7.213-18.787l4.775,18.546c0.482,1.867,1.684,3.467,3.346,4.447
			c1.127,0.666,2.404,1.01,3.693,1.01c0.605,0,1.215-0.076,1.811-0.23l19.979-5.145c1.867-0.481,3.465-1.684,4.445-3.344
			c0.98-1.658,1.262-3.641,0.779-5.506l-0.193-0.744c-0.529-2.061-1.893-3.688-3.635-4.61c-0.346-0.827-0.852-2.257-1.459-4.614
			L478.435,663c0.082-2.135,1.24-2.434,1.699-2.553c0.441-0.112,0.885-0.172,1.285-0.172c0.551,0,0.91,0.113,1.051,0.214
			c1.846,1.3,4.184,1.653,6.326,0.991c0.475,1.441,1.021,2.875,1.664,4.295c6.131,13.564,17.893,21.665,31.467,21.665
			c0,0,0,0,0.002,0c5.52,0,11.213-1.31,16.928-3.892c18.531-8.373,26.203-25.658,19.955-43.875l13.422,18.377
			c1.137,1.557,2.846,2.597,4.75,2.895c0.373,0.057,0.746,0.086,1.119,0.086c1.533,0,3.033-0.483,4.287-1.398l16.658-12.168
			c3.24-2.365,3.951-6.91,1.584-10.152l-0.451-0.619c-1.137-1.558-2.848-2.6-4.75-2.896c-0.111-0.02-0.227-0.034-0.338-0.046
			c-0.627-0.643-1.623-1.782-3.061-3.75l-14.967-20.492c1.029,0.861,2.416,2.158,4.232,4.118l21.525,23.144
			c2.508,2.696,6.635,3.093,9.607,0.921l16.662-12.169c1.557-1.136,2.598-2.848,2.895-4.753c0.295-1.907-0.178-3.853-1.318-5.407
			l-0.455-0.621c-1.313-1.795-3.297-2.811-5.355-2.955c-0.844-0.66-2.098-1.797-3.387-3.141c3.756,2.594,7.912,3.956,12.195,3.956
			c6.656,0,13.367-3.305,18.895-9.302c4.904-5.322,7.1-10.742,8.043-15.515c3.141-0.253,6.008-1.235,8.373-2.878
			c1.604-1.116,2.693-2.832,3.018-4.762l2.5-14.855C674.931,562.689,673.925,560.053,671.862,558.407z M410.444,665.373
			c1.994,1.557,5.688,7.872,6.598,19.396c0.322,4.048,0.063,6.318-0.203,7.496c-1.922-1.828-5.773-8.559-6.676-19.939
			C409.864,668.543,410.163,666.439,410.444,665.373z M518.356,645.583c-1.547-3.425-1.986-5.497-2.088-6.605
			c2.602,0.883,8.191,5.842,12.775,15.986c1.682,3.724,2.201,5.952,2.348,7.145C528.657,661.004,522.729,655.262,518.356,645.583z
			 M637.696,579.842l2.197,1.281c-0.102,0.08-0.184,0.131-0.236,0.162c-0.172-0.051-0.703-0.258-1.551-1.037
			C637.944,580.096,637.808,579.961,637.696,579.842z M616.128,570.619c0.537-0.582,0.916-0.854,1.195-0.98
			c-1.215,1.999-2.256,3.94-3.127,5.828C614.218,573.547,614.829,572.029,616.128,570.619z"/>
	</g>
	<g>
		<path fill="none" d="M28.022,355.769c0,198.968,161.296,360.264,360.263,360.264c198.97,0,360.263-161.296,360.263-360.264"/>
		<text transform="matrix(0.6896 0.7242 -0.7242 0.6896 97.6494 572.9824)"><tspan x="0" y="0" fill="#082D53" stroke="#082D53" stroke-width="4" stroke-linecap="round" stroke-linejoin="round" stroke-miterlimit="10" font-family="'HeroinePro-Bold'" font-size="111.9105">D</tspan><tspan x="98.633" y="-2.449" fill="#082D53" stroke="#082D53" stroke-width="4" stroke-linecap="round" stroke-linejoin="round" stroke-miterlimit="10" font-family="'HeroinePro-Bold'" font-size="111.9105" rotate="-14.499">R</tspan><tspan x="175.702" y="-24.883" fill="#082D53" stroke="#082D53" stroke-width="4" stroke-linecap="round" stroke-linejoin="round" stroke-miterlimit="10" font-family="'HeroinePro-Bold'" font-size="111.9105" rotate="-23.784">.</tspan><tspan x="205.205" y="-38.166" fill="#082D53" stroke="#082D53" stroke-width="4" stroke-linecap="round" stroke-linejoin="round" stroke-miterlimit="10" font-family="'HeroinePro-Bold'" font-size="111.9105" rotate="-28.68"> </tspan><tspan x="234.703" y="-52.642" fill="#082D53" stroke="#082D53" stroke-width="4" stroke-linecap="round" stroke-linejoin="round" stroke-miterlimit="10" font-family="'HeroinePro-Bold'" font-size="111.9105" rotate="-38.054">C</tspan><tspan x="302.677" y="-108.242" fill="#082D53" stroke="#082D53" stroke-width="4" stroke-linecap="round" stroke-linejoin="round" stroke-miterlimit="10" font-family="'HeroinePro-Bold'" font-size="111.9105" rotate="-51.033">o</tspan><tspan x="348.41" y="-167.562" fill="#082D53" stroke="#082D53" stroke-width="4" stroke-linecap="round" stroke-linejoin="round" stroke-miterlimit="10" font-family="'HeroinePro-Bold'" font-size="111.9105" rotate="-61.184">r</tspan><tspan x="373.997" y="-213.643" fill="#082D53" stroke="#082D53" stroke-width="4" stroke-linecap="round" stroke-linejoin="round" stroke-miterlimit="10" font-family="'HeroinePro-Bold'" font-size="111.9105" rotate="-71.389">o</tspan><tspan x="397.356" y="-286.668" fill="#082D53" stroke="#082D53" stroke-width="4" stroke-linecap="round" stroke-linejoin="round" stroke-miterlimit="10" font-family="'HeroinePro-Bold'" font-size="111.9105" rotate="-83.479">n</tspan><tspan x="404.696" y="-361.501" fill="#082D53" stroke="#082D53" stroke-width="4" stroke-linecap="round" stroke-linejoin="round" stroke-miterlimit="10" font-family="'HeroinePro-Bold'" font-size="111.9105" rotate="-95.039">a</tspan></text>
	</g>
	<path fill="#082D53" d="M686.185,331.568c-10.756-11.476-27.688-24.454-52.822-31.537c0.078-5.313-0.176-11.061-0.822-17.287
		c-4.168-40.079-19.725-64.466-43.088-68.198c-16.336-23.466-31.547-39.088-52.648-39.088c-0.813,0-1.615,0.025-2.414,0.073
		c-7.363-5.68-15.146-10.982-23.02-15.252c1.703-4.938,2.623-10.231,2.623-15.727c0-9.522-2.699-18.361-7.391-25.794
		c1.051-3.787,1.613-7.754,1.613-11.818c0-24.62-20.029-44.649-44.648-44.649c-13.047,0-24.801,5.625-32.973,14.579
		c-7.641-13.68-22.266-22.953-39.018-22.953c-17.256,0-32.258,9.844-39.686,24.21c-8.198-9.681-20.437-15.836-34.084-15.836
		c-24.621,0-44.649,20.029-44.649,44.649c0,4.405,0.632,8.666,1.814,12.692c-4.425,7.273-6.979,15.804-6.979,24.92
		c0,5.561,0.964,10.923,2.738,15.922c-7.751,4.238-15.412,9.466-22.664,15.062c-0.806-0.052-1.609-0.078-2.41-0.078
		c-21.103,0-36.314,15.624-52.652,39.089c-23.343,3.727-38.896,28.084-43.081,68.109c-0.596,5.701-0.863,11.011-0.847,15.945
		c-28.89,6.558-48.008,20.288-59.877,32.331c-21.264,21.578-32.976,51.482-32.976,84.214c0,29.375,9.504,54.882,27.485,73.761
		c13.676,14.355,38.939,31.47,81.63,31.47c8.572,0,17.576-0.7,26.938-2.091c42.927,69.144,117.968,112.34,198.946,112.34
		c45.111,0,88.965-13.155,126.824-38.051c28.947-19.035,53.406-44.226,71.809-73.761c7.627,1.024,15.002,1.542,22.078,1.542
		c0.004,0,0,0,0.004,0c41.633,0,66.199-17.456,79.467-32.098c17.027-18.784,26.025-44.066,26.025-73.112
		C717.431,382.746,706.333,353.064,686.185,331.568z"/>
	<g>
		<path fill="#FFAB9C" d="M595.729,388.653c0,116.894-91.588,211.653-204.59,211.653c-112.988,0-204.593-94.76-204.593-211.653
			c0-116.897,91.605-211.655,204.593-211.655C504.142,176.998,595.729,271.756,595.729,388.653z"/>
		
			<circle fill="#FFFFFF" stroke="#FFFFFF" stroke-width="4" stroke-linecap="round" stroke-linejoin="round" stroke-miterlimit="10" cx="343.274" cy="176.998" r="27.877"/>
		
			<circle fill="#FFFFFF" stroke="#FFFFFF" stroke-width="4" stroke-linecap="round" stroke-linejoin="round" stroke-miterlimit="10" cx="439.349" cy="176.84" r="27.877"/>
		
			<circle fill="#FFFFFF" stroke="#FFFFFF" stroke-width="4" stroke-linecap="round" stroke-linejoin="round" stroke-miterlimit="10" cx="386.828" cy="185.402" r="41.087"/>
		<g>
			<polygon fill="#FEFB00" points="390.864,193.045 470.351,192.951 466.706,107.683 428.784,131.069 391.2,95.686 391.2,95.577 
				391.144,95.629 391.09,95.577 391.079,95.69 353.508,131.069 315.583,107.683 311.937,192.951 387.186,193.045 387.186,193.054 
				389.073,193.05 390.864,193.054 			"/>
			
				<line fill="none" stroke="#082D53" stroke-width="4" stroke-linecap="round" stroke-linejoin="round" stroke-miterlimit="10" x1="313.076" y1="166.266" x2="469.308" y2="166.266"/>
			<circle fill="#082D53" cx="392.168" cy="140.873" r="13.276"/>
			<circle fill="#082D53" cx="314.582" cy="140.873" r="13.278"/>
			<path fill="#082D53" d="M480.505,140.873c0,7.337-5.938,13.281-13.271,13.281c-7.338,0-13.285-5.944-13.285-13.281
				c0-7.334,5.947-13.275,13.285-13.275C474.567,127.597,480.505,133.539,480.505,140.873z"/>
			<path fill="#FEFB00" d="M401.296,94.028c0,5.41-4.385,9.792-9.795,9.792c-5.405,0-9.79-4.382-9.79-9.792
				c0-5.407,4.385-9.79,9.79-9.79C396.911,84.239,401.296,88.621,401.296,94.028z"/>
			<circle fill="#FEFB00" cx="316.356" cy="102.559" r="9.792"/>
			<path fill="#FEFB00" d="M474.622,102.559c0,5.406-4.381,9.793-9.791,9.793c-5.406,0-9.789-4.387-9.789-9.793
				c0-5.409,4.383-9.791,9.789-9.791C470.241,92.769,474.622,97.15,474.622,102.559z"/>
		</g>
		<path fill="#FFAB9C" d="M207.143,481.605c-83.791,21.995-120.099-15.884-120.099-65.102c0-49.213,34.59-92.776,110.424-86.378"/>
		<path fill="none" stroke="#082D53" stroke-width="4" stroke-linecap="round" stroke-linejoin="round" stroke-miterlimit="10" d="
			M108.238,405.582c0,0,43.235-33.872,83.875-1.115"/>
		<path fill="none" stroke="#082D53" stroke-width="4" stroke-linecap="round" stroke-linejoin="round" stroke-miterlimit="10" d="
			M174.171,394.033c0,0-25.567-3.035-29.007,37.779"/>
		<path fill="#FFAB9C" d="M573.511,481.605c79.693,21.995,114.223-15.884,114.223-65.102c0-49.213-32.895-92.776-105.016-86.378"/>
		<path fill="none" stroke="#082D53" stroke-width="4" stroke-linecap="round" stroke-linejoin="round" stroke-miterlimit="10" d="
			M667.577,405.582c0,0-41.111-33.872-79.77-1.115"/>
		<path fill="none" stroke="#082D53" stroke-width="4" stroke-linecap="round" stroke-linejoin="round" stroke-miterlimit="10" d="
			M604.88,394.033c0,0,24.307-3.035,27.566,37.779"/>
		<path fill="none" stroke="#082D53" stroke-width="4" stroke-linecap="round" stroke-linejoin="round" stroke-miterlimit="10" d="
			M380.946,324.688c0,0,11.022-8.597,22.049,0"/>
		<path fill="#ABCFDB" d="M380.78,327.667c0,16.88-13.685,30.565-30.561,30.565c-16.89,0-30.571-13.685-30.571-30.565
			c0-16.883,13.682-30.572,30.571-30.572C367.095,297.095,380.78,310.784,380.78,327.667z"/>
		<path fill="#ABCFDB" d="M404.524,327.667c0,16.88,13.689,30.565,30.559,30.565c16.893,0,30.58-13.685,30.58-30.565
			c0-16.883-13.688-30.572-30.58-30.572C418.214,297.095,404.524,310.784,404.524,327.667z"/>
		
			<path fill="#FFFFFF" stroke="#FFFFFF" stroke-width="4" stroke-linecap="round" stroke-linejoin="round" stroke-miterlimit="10" d="
			M373.347,298.755c7.761-1.152,11.421-3.132,10.783-11.789c-0.64-8.656-3.633-8.803-16.88-6.461
			c-15.673,2.761-38.728,10.34-52.668,23.452c0,0,12.437-3.053,15.615-2.988l-13.842,18.119
			C316.354,319.088,335.475,304.344,373.347,298.755z"/>
		
			<path fill="#FFFFFF" stroke="#FFFFFF" stroke-width="4" stroke-linecap="round" stroke-linejoin="round" stroke-miterlimit="10" d="
			M409.292,298.755c-7.76-1.152-11.414-3.132-10.781-11.789c0.641-8.656,3.635-8.803,16.875-6.461
			c15.686,2.761,38.736,10.34,52.68,23.452c0,0-12.445-3.053-15.623-2.988l13.846,18.119
			C466.288,319.088,447.165,304.344,409.292,298.755z"/>
		
			<path fill="#FFFFFF" stroke="#FFFFFF" stroke-width="4" stroke-linecap="round" stroke-linejoin="round" stroke-miterlimit="10" d="
			M196.601,329.501c-35.758,0-8.083-116.064,5.009-72.288c0,0,43.255-74.916,44.896-39.808c0,0,61.844-58.509,64.219-24.455
			L196.601,329.501z"/>
		
			<path fill="#FFFFFF" stroke="#FFFFFF" stroke-width="4" stroke-linecap="round" stroke-linejoin="round" stroke-miterlimit="10" d="
			M584.479,329.501c35.752,0,8.08-116.064-5.014-72.288c0,0-43.254-74.916-44.887-39.808c0,0-61.854-58.509-64.229-24.455
			L584.479,329.501z"/>
		<path fill="none" stroke="#082D53" stroke-width="4" stroke-linecap="round" stroke-linejoin="round" stroke-miterlimit="10" d="
			M193.985,329.556c0.137,0.287,125.238,0,125.238,0"/>
		<path fill="none" stroke="#082D53" stroke-width="4" stroke-linecap="round" stroke-linejoin="round" stroke-miterlimit="10" d="
			M587.991,329.556c-0.135,0.287-122.951,0-122.951,0"/>
		<path fill="none" stroke="#FFFFFF" stroke-width="4" stroke-linecap="round" stroke-linejoin="round" stroke-miterlimit="10" d="
			M223.656,292.712c0,0-29.137-34.699-8.448-90.542"/>
		<path fill="none" stroke="#FFFFFF" stroke-width="4" stroke-linecap="round" stroke-linejoin="round" stroke-miterlimit="10" d="
			M564.067,285.891c0,0,29.861-29.935,8.654-78.103"/>
		
			<line fill="none" stroke="#082D53" stroke-width="4" stroke-linecap="round" stroke-linejoin="round" stroke-miterlimit="10" x1="342.06" y1="260.489" x2="440.218" y2="260.489"/>
		
			<line fill="none" stroke="#082D53" stroke-width="4" stroke-linecap="round" stroke-linejoin="round" stroke-miterlimit="10" x1="356.621" y1="240.619" x2="425.657" y2="240.619"/>
		
			<line fill="none" stroke="#082D53" stroke-width="4" stroke-linecap="round" stroke-linejoin="round" stroke-miterlimit="10" x1="461.946" y1="380.016" x2="475.942" y2="380.016"/>
		
			<line fill="none" stroke="#082D53" stroke-width="4" stroke-linecap="round" stroke-linejoin="round" stroke-miterlimit="10" x1="308.587" y1="380.016" x2="322.583" y2="380.016"/>
		<path fill="#082D53" d="M380.158,418.73c-1.384-4-14.807-19.901-28.376-24.753c-6.816-2.438,17.118-6.108,17.118-6.108
			l11.888,13.906C380.787,401.775,381.542,422.727,380.158,418.73z"/>
		<path fill="#082D53" d="M408.489,417.344c1.383-4.001,11.994-18.515,25.564-23.366c6.814-2.438-17.119-6.108-17.119-6.108
			l-11.887,13.906C405.048,401.775,407.106,421.34,408.489,417.344z"/>
		<path fill="none" stroke="#082D53" stroke-width="4" stroke-linecap="round" stroke-linejoin="round" stroke-miterlimit="10" d="
			M468.386,380.016c0,41.824-33.9,75.727-75.725,75.727c-41.819,0-75.725-33.902-75.725-75.727"/>
		
			<line fill="none" stroke="#082D53" stroke-width="4" stroke-linecap="round" stroke-linejoin="round" stroke-miterlimit="10" x1="392.661" y1="479.822" x2="392.661" y2="502.194"/>
		<circle fill="#082D53" cx="284.888" cy="411.377" r="5.796"/>
		<path fill="#FFFFFF" d="M377.528,327.655c0,7.001-5.666,12.683-12.667,12.683h-30.522c-7.002,0-12.683-5.681-12.683-12.683
			c0-3.502,1.422-6.673,3.716-8.966c2.296-2.284,5.463-3.701,8.966-3.701h30.522C371.862,314.988,377.528,320.653,377.528,327.655z"
			/>
		<path fill="#082D53" d="M342.842,314.988c-4.279,3.004-7.085,7.993-7.085,13.626c0,4.59,1.848,8.716,4.839,11.723h23.651
			c3.004-3.007,4.87-7.133,4.87-11.723c0-5.634-2.823-10.606-7.101-13.626H342.842z"/>
		<path fill="#FFFFFF" d="M463.212,327.655c0,7.001-5.666,12.683-12.672,12.683h-30.52c-7.004,0-12.684-5.681-12.684-12.683
			c0-3.502,1.422-6.673,3.717-8.966c2.297-2.284,5.465-3.701,8.967-3.701h30.52C457.546,314.988,463.212,320.653,463.212,327.655z"
			/>
		<path fill="#082D53" d="M422.401,314.988c-4.279,3.004-7.086,7.993-7.086,13.626c0,4.59,1.85,8.716,4.84,11.723h23.652
			c3.004-3.007,4.869-7.133,4.869-11.723c0-5.634-2.824-10.606-7.1-13.626H422.401z"/>
		<path fill="none" stroke="#082D53" stroke-width="4" stroke-linecap="round" stroke-linejoin="round" stroke-miterlimit="10" d="
			M380.158,327.667c0,16.88-13.686,30.565-30.562,30.565c-16.889,0-30.571-13.685-30.571-30.565
			c0-16.883,13.683-30.572,30.571-30.572C366.472,297.095,380.158,310.784,380.158,327.667z"/>
		<path fill="none" stroke="#082D53" stroke-width="4" stroke-linecap="round" stroke-linejoin="round" stroke-miterlimit="10" d="
			M403.901,327.667c0,16.88,13.689,30.565,30.561,30.565c16.891,0,30.578-13.685,30.578-30.565
			c0-16.883-13.688-30.572-30.578-30.572C417.591,297.095,403.901,310.784,403.901,327.667z"/>
		
			<path fill="#FFAB9C" stroke="#082D53" stroke-width="4" stroke-linecap="round" stroke-linejoin="round" stroke-miterlimit="10" d="
			M432.956,367.501c13.861,7.323,14.301,25.247-2.756,25.247c-17.063,0-21.744,6.955-21.65,18.791
			c0.094,11.831-11.318,13.021-14.1,13.021c-2.793,0-14.22-1.19-14.314-13.021c-0.096-11.836-4.884-18.791-21.942-18.791
			c-17.064,0-16.915-17.924-3.161-25.247"/>
		<path fill="none" stroke="#082D53" stroke-width="4" stroke-linecap="round" stroke-linejoin="round" stroke-miterlimit="10" d="
			M382.657,325.503c0,0-6.757,28.908-1.435,63.178"/>
		<path fill="none" stroke="#082D53" stroke-width="4" stroke-linecap="round" stroke-linejoin="round" stroke-miterlimit="10" d="
			M403.384,325.503c0,0,7.219,28.908,2.455,63.178"/>
	</g>
</g>
</svg>
