<?xml version="1.0" encoding="utf-8"?>
<!-- Generator: Adobe Illustrator 16.0.0, SVG Export Plug-In . SVG Version: 6.00 Build 0)  -->
<!DOCTYPE svg PUBLIC "-//W3C//DTD SVG 1.1//EN" "http://www.w3.org/Graphics/SVG/1.1/DTD/svg11.dtd">
<svg version="1.1" id="Layer_1" xmlns="http://www.w3.org/2000/svg" xmlns:xlink="http://www.w3.org/1999/xlink" x="0px" y="0px"
	 width="224px" height="221px" viewBox="0 0 224 221" enable-background="new 0 0 224 221" xml:space="preserve">
<g>
	<g>
		<ellipse fill="#444CC3" cx="111.667" cy="111.616" rx="89.679" ry="88.568"/>
		<g>
			<path fill="#444CC3" d="M126.357,6.918c0-4.128-6.578-7.474-14.69-7.474c-8.118,0-14.691,3.346-14.691,7.474
				c0,1.92,1.433,3.662,3.77,4.99l-0.238,0.062c0,0,2.852,2.813,2.852,6.143c0,3.336-1.428,10.812-1.428,10.812h8.246h0.727H121.4
				c0,0-1.426-7.476-1.426-10.812c0-3.329,2.85-6.143,2.85-6.143l-0.26-0.053C124.912,10.59,126.357,8.841,126.357,6.918z"/>
			<path fill="#444CC3" d="M96.976,213.746c0,4.131,6.573,7.476,14.691,7.476c8.112,0,14.684-3.345,14.684-7.476
				c0-1.918-1.429-3.664-3.768-4.987l0.238-0.062c0,0-2.852-2.813-2.852-6.149c0-3.33,1.426-10.811,1.426-10.811h-8.245h-0.721
				h-10.499c0,0,1.428,7.48,1.428,10.811c0,3.336-2.852,6.149-2.852,6.149l0.257,0.054
				C98.419,210.076,96.976,211.825,96.976,213.746z"/>
		</g>
		<g>
			<path fill="#444CC3" d="M216.377,124.841c4.181,0,7.567-6.493,7.567-14.508s-3.387-14.504-7.567-14.504
				c-1.945,0-3.709,1.416-5.053,3.721l-0.065-0.234c0,0-2.85,2.812-6.218,2.812c-3.378,0-10.946-1.405-10.946-1.405v8.146v0.716
				v10.364c0,0,7.568-1.406,10.946-1.406c3.368,0,6.218,2.813,6.218,2.813l0.058-0.254
				C212.656,123.418,214.43,124.841,216.377,124.841z"/>
			<path fill="#444CC3" d="M6.955,95.823c-4.177,0-7.566,6.495-7.566,14.51c0,8.012,3.389,14.508,7.566,14.508
				c1.944,0,3.71-1.42,5.053-3.729l0.061,0.241c0,0,2.85-2.813,6.225-2.813c3.374,0,10.945,1.406,10.945,1.406v-8.143v-0.722
				v-10.364c0,0-7.571,1.407-10.945,1.407c-3.375,0-6.225-2.813-6.225-2.813l-0.056,0.254C10.675,97.248,8.901,95.823,6.955,95.823z
				"/>
		</g>
		<g>
			<path fill="#444CC3" d="M197.276,49.046c3.008-2.865,0.887-9.865-4.741-15.637c-5.627-5.772-12.629-8.129-15.637-5.267
				c-1.401,1.331-1.684,3.565-1.027,6.145l-0.209-0.125c0,0-0.078,3.979-2.505,6.289c-2.432,2.311-8.874,6.484-8.874,6.484
				l5.719,5.868l0.507,0.515l7.276,7.464c0,0,4.469-6.198,6.898-8.512c2.43-2.308,6.457-2.233,6.457-2.233L191,49.814
				C193.599,50.567,195.877,50.377,197.276,49.046z"/>
			<path fill="#444CC3" d="M26.057,171.621c-3.012,2.859-0.89,9.861,4.741,15.637c5.627,5.771,12.629,8.126,15.636,5.264
				c1.403-1.333,1.677-3.564,1.021-6.143l0.219,0.126c0,0,0.075-3.979,2.501-6.29c2.43-2.313,8.872-6.487,8.872-6.487l-5.723-5.867
				l-0.5-0.513l-7.278-7.469c0,0-4.468,6.204-6.897,8.512c-2.432,2.313-6.459,2.239-6.459,2.239l0.144,0.223
				C29.734,170.095,27.458,170.288,26.057,171.621z"/>
		</g>
		<g>
			<path fill="#444CC3" d="M173.725,194.879c2.899,2.975,9.984,0.879,15.832-4.684c5.848-5.557,8.228-12.468,5.333-15.445
				c-1.35-1.384-3.61-1.654-6.225-1.006l0.129-0.213c0,0-4.027-0.074-6.37-2.469c-2.338-2.405-6.564-8.763-6.564-8.763l-5.938,5.646
				l-0.525,0.497l-7.557,7.188c0,0,6.276,4.418,8.619,6.814c2.341,2.396,2.266,6.378,2.266,6.378l0.225-0.14
				C172.188,191.246,172.375,193.494,173.725,194.879z"/>
			<path fill="#444CC3" d="M49.606,25.782c-2.903-2.969-9.987-0.874-15.833,4.684c-5.84,5.558-8.23,12.474-5.333,15.448
				c1.351,1.384,3.617,1.655,6.224,1.003l-0.128,0.215c0,0,4.029,0.074,6.367,2.473c2.344,2.4,6.571,8.768,6.571,8.768l5.935-5.651
				l0.524-0.503l7.562-7.187c0,0-6.282-4.414-8.623-6.81c-2.339-2.402-2.262-6.379-2.262-6.379l-0.23,0.138
				C51.144,29.422,50.958,27.172,49.606,25.782z"/>
		</g>
		<g>
			<path fill="#444CC3" d="M169.757,23.077c1.792-3.733-2.702-9.533-10.032-12.965c-7.334-3.429-14.729-3.188-16.518,0.546
				c-0.835,1.735-0.293,3.921,1.245,6.101l-0.241-0.04c0,0,1.354,3.746-0.09,6.761c-1.445,3.009-5.971,9.167-5.971,9.167l7.45,3.482
				l0.659,0.307l9.479,4.434c0,0,1.96-7.355,3.402-10.371c1.44-3.007,5.238-4.345,5.238-4.345l-0.213-0.162
				C166.863,25.786,168.923,24.815,169.757,23.077z"/>
			<path fill="#444CC3" d="M53.576,197.59c-1.793,3.729,2.701,9.533,10.035,12.963c7.331,3.426,14.726,3.187,16.514-0.544
				c0.833-1.736,0.294-3.922-1.251-6.106l0.244,0.047c0,0-1.349-3.748,0.093-6.762c1.443-3.009,5.971-9.164,5.971-9.164
				l-7.453-3.485l-0.656-0.311l-9.485-4.436c0,0-1.954,7.36-3.393,10.371c-1.448,3.012-5.243,4.35-5.243,4.35l0.208,0.162
				C56.47,194.874,54.406,195.85,53.576,197.59z"/>
		</g>
		<g>
			<path fill="#444CC3" d="M200.015,167.711c3.774,1.764,9.651-2.671,13.124-9.917c3.474-7.241,3.229-14.541-0.551-16.31
				c-1.757-0.822-3.967-0.289-6.178,1.232l0.041-0.241c0,0-3.791,1.337-6.84-0.089c-3.052-1.422-9.285-5.896-9.285-5.896
				l-3.527,7.36l-0.311,0.644l-4.491,9.368c0,0,7.448,1.93,10.501,3.354c3.052,1.427,4.404,5.178,4.404,5.178l0.16-0.206
				C197.268,164.85,198.251,166.885,200.015,167.711z"/>
			<path fill="#444CC3" d="M23.316,52.955c-3.772-1.767-9.651,2.678-13.122,9.918c-3.471,7.235-3.227,14.541,0.551,16.311
				c1.756,0.821,3.965,0.283,6.175-1.234l-0.043,0.241c0,0,3.797-1.336,6.845,0.09c3.049,1.426,9.285,5.896,9.285,5.896l3.526-7.36
				l0.31-0.647l4.495-9.369c0,0-7.452-1.924-10.499-3.354c-3.055-1.425-4.409-5.173-4.409-5.173l-0.164,0.209
				C26.061,55.815,25.082,53.781,23.316,52.955z"/>
		</g>
		<g>
			<path fill="#444CC3" d="M215.216,89.205c3.933-1.385,4.911-8.631,2.185-16.175c-2.73-7.552-8.133-12.541-12.068-11.15
				c-1.836,0.644-3.012,2.566-3.488,5.186l-0.142-0.204c0,0-1.724,3.597-4.901,4.722c-3.173,1.118-10.788,2.311-10.788,2.311
				l2.776,7.671l0.242,0.677l3.533,9.758c0,0,6.648-3.843,9.828-4.964c3.177-1.118,6.816,0.586,6.816,0.586l-0.031-0.262
				C211.225,89.101,213.379,89.854,215.216,89.205z"/>
			<path fill="#444CC3" d="M8.112,131.462c-3.928,1.385-4.907,8.63-2.182,16.174c2.728,7.548,8.133,12.541,12.073,11.148
				c1.827-0.646,3.008-2.564,3.484-5.183l0.143,0.2c0,0,1.722-3.594,4.897-4.718c3.177-1.12,10.786-2.311,10.786-2.311l-2.772-7.669
				l-0.245-0.679l-3.529-9.757c0,0-6.647,3.841-9.824,4.962c-3.178,1.118-6.822-0.583-6.822-0.583l0.032,0.261
				C12.103,131.566,9.951,130.813,8.112,131.462z"/>
		</g>
		<g>
			<path fill="#444CC3" d="M133.059,212.6c1.406,3.889,8.736,4.859,16.38,2.154c7.642-2.691,12.693-8.027,11.288-11.916
				c-0.66-1.805-2.602-2.971-5.254-3.441l0.205-0.141c0,0-3.642-1.705-4.776-4.841c-1.134-3.138-2.339-10.653-2.339-10.653
				l-7.764,2.743l-0.683,0.235l-9.886,3.489c0,0,3.89,6.569,5.023,9.708c1.135,3.137-0.592,6.729-0.592,6.729l0.266-0.03
				C133.166,208.66,132.403,210.787,133.059,212.6z"/>
			<path fill="#444CC3" d="M90.273,8.065c-1.406-3.887-8.742-4.856-16.382-2.157c-7.635,2.695-12.692,8.027-11.289,11.916
				c0.659,1.811,2.604,2.975,5.257,3.446l-0.208,0.139c0,0,3.643,1.706,4.774,4.838c1.138,3.14,2.342,10.657,2.342,10.657
				l7.764-2.742l0.688-0.24l9.884-3.483c0,0-3.89-6.575-5.024-9.712c-1.136-3.134,0.591-6.732,0.591-6.732l-0.267,0.036
				C90.169,12.002,90.93,9.874,90.273,8.065z"/>
		</g>
	</g>
	<circle fill="#082D53" cx="162.166" cy="92.833" r="6.5"/>
	<circle fill="#082D53" cx="59.167" cy="90.833" r="6.5"/>
	<path fill="none" stroke="#082D53" stroke-width="2" stroke-linecap="round" stroke-linejoin="round" stroke-miterlimit="10" d="
		M129.475,112.829c0,9.812-7.953,17.765-17.765,17.765c-9.81,0-17.764-7.953-17.764-17.765"/>
</g>
</svg>
